HIERARCHY
ROOT Hips
{
    OFFSET 0.000000 0.000000 0.000000
    CHANNELS 6 Xposition Yposition Zposition Zrotation Xrotation Yrotation
    JOINT Spine
    {
        OFFSET -0.000000 14.517291 0.000000
        CHANNELS 3 Zrotation Xrotation Yrotation
        JOINT Spine1
        {
            OFFSET -0.000000 37.558300 0.000000
            CHANNELS 3 Zrotation Xrotation Yrotation
            JOINT Neck
            {
                OFFSET -0.000000 37.404057 3.400369
                CHANNELS 3 Zrotation Xrotation Yrotation
                JOINT Head
                {
                    OFFSET -0.000000 24.785618 -3.540803
                    CHANNELS 3 Zrotation Xrotation Yrotation
                    End Site
                    {
                        OFFSET -0.000000 35.408028 0.000000
                    }
                }
            }
            JOINT LeftShoulder
            {
                OFFSET 6.992933 33.973492 -0.192664
                CHANNELS 3 Zrotation Xrotation Yrotation
                JOINT LeftArm
                {
                    OFFSET 21.527611 0.000000 0.000000
                    CHANNELS 3 Zrotation Xrotation Yrotation
                    JOINT LeftForeArm
                    {
                        OFFSET 56.353916 0.000000 0.000000
                        CHANNELS 3 Zrotation Xrotation Yrotation
                        JOINT LeftHand
                        {
                            OFFSET 47.774071 0.000000 0.000000
                            CHANNELS 3 Zrotation Xrotation Yrotation
                            End Site
                            {
                                OFFSET 26.556021 0.000000 0.000000
                            }
                        }
                    }
                }
            }
            JOINT RightShoulder
            {
                OFFSET -7.065357 33.973492 -0.192664
                CHANNELS 3 Zrotation Xrotation Yrotation
                JOINT RightArm
                {
                    OFFSET -21.527611 0.000000 0.000000
                    CHANNELS 3 Zrotation Xrotation Yrotation
                    JOINT RightForeArm
                    {
                        OFFSET -56.353916 0.000000 0.000000
                        CHANNELS 3 Zrotation Xrotation Yrotation
                        JOINT RightHand
                        {
                            OFFSET -47.774071 0.000000 0.000000
                            CHANNELS 3 Zrotation Xrotation Yrotation
                            End Site
                            {
                                OFFSET -26.556021 0.000000 0.000000
                            }
                        }
                    }
                }
            }
        }
    }
    JOINT LeftUpLeg
    {
        OFFSET 17.704014 0.000000 0.000000
        CHANNELS 3 Zrotation Xrotation Yrotation
        JOINT LeftLeg
        {
            OFFSET -0.000000 -81.181816 0.000000
            CHANNELS 3 Zrotation Xrotation Yrotation
            JOINT LeftFoot
            {
                OFFSET -0.000000 -62.821102 0.000000
                CHANNELS 3 Zrotation Xrotation Yrotation
                JOINT LeftToeBase
                {
                    OFFSET -0.000000 -11.507608 26.556021
                    CHANNELS 3 Zrotation Xrotation Yrotation
                    End Site
                    {
                        OFFSET -0.000000 0.000000 7.081605
                    }
                }
            }
        }
    }
    JOINT RightUpLeg
    {
        OFFSET -17.704014 0.000000 0.000000
        CHANNELS 3 Zrotation Xrotation Yrotation
        JOINT RightLeg
        {
            OFFSET -0.000000 -81.181816 0.000000
            CHANNELS 3 Zrotation Xrotation Yrotation
            JOINT RightFoot
            {
                OFFSET -0.000000 -62.821102 0.000000
                CHANNELS 3 Zrotation Xrotation Yrotation
                JOINT RightToeBase
                {
                    OFFSET -0.000000 -11.507608 26.556021
                    CHANNELS 3 Zrotation Xrotation Yrotation
                    End Site
                    {
                        OFFSET -0.000000 0.000000 7.081605
                    }
                }
            }
        }
    }
}
MOTION
Frames:    14
Frame Time:    0.008333
-5.093820    152.802872    -13.335769    -0.340568    1.255348    18.916964    -0.253582    0.572821    12.139199    1.349054    0.798149    4.036839    -12.123343    2.855840    -16.687584    20.031231    0.244072    -13.119933    6.199915    -2.764358    -2.061879    -30.829405    21.708366    10.448821    -15.609585    6.531631    -141.281219    3.419896    -37.847065    -9.571845    -13.631409    5.268922    7.362457    26.339128    -16.449062    55.537037    -7.705648    -21.214251    15.152118    11.595082    -16.363699    38.800175    1.653238    -33.616596    -27.111162    -10.719878    21.735603    -19.800861    -9.769707    3.210556    30.077320    0.000000    0.000000    0.000000    1.389418    12.582861    -8.997241    3.610978    20.313774    -0.728974    -3.014655    -28.937138    -7.278639    0.000000    0.000000    0.000000    
-5.107996    152.789520    -13.322483    -0.341922    1.259934    18.984318    -0.245061    0.591065    12.144361    1.300119    0.763084    4.039290    -12.113133    2.886660    -16.741222    20.042994    0.259429    -13.182141    6.251506    -2.773230    -2.016863    -30.893064    21.603588    10.557898    -15.612357    6.427763    -141.345184    3.511125    -38.014336    -9.446839    -13.611410    5.253278    7.368842    26.248228    -16.468382    55.415039    -7.751828    -21.189692    15.085711    11.602512    -16.330791    38.832497    1.613988    -33.644928    -27.136786    -10.711479    21.776617    -19.834078    -9.771995    3.204887    30.055359    0.000000    0.000000    0.000000    1.409896    12.573371    -9.081782    3.606811    20.350096    -0.730156    -2.991804    -28.953661    -7.259254    0.000000    0.000000    0.000000    
-5.130930    152.770721    -13.307580    -0.354501    1.257728    19.056795    -0.207137    0.617587    12.147865    1.244228    0.733112    4.041365    -12.156531    2.905328    -16.802927    20.086946    0.290685    -13.243071    6.263785    -2.814464    -2.009938    -30.946947    21.524420    10.737010    -15.591260    6.258569    -141.384125    3.376421    -38.129086    -9.512640    -13.635901    5.235596    7.363242    26.219809    -16.492935    55.328468    -7.796859    -21.166361    15.016663    11.635149    -16.289099    38.881115    1.594343    -33.676662    -27.177794    -10.731548    21.814600    -19.827364    -9.747523    3.200765    30.030798    0.000000    0.000000    0.000000    1.450288    12.565013    -9.165318    3.599348    20.386728    -0.761904    -3.004643    -28.975760    -7.225111    0.000000    0.000000    0.000000    
-5.154533    152.750916    -13.295630    -0.362170    1.257865    19.129833    -0.188899    0.647147    12.150516    1.219871    0.710287    4.042437    -12.226280    2.896919    -16.866745    20.136410    0.327789    -13.300200    6.243023    -2.863045    -1.997869    -30.979055    21.449780    10.895160    -15.596738    6.141012    -141.405869    3.268062    -38.256584    -9.590377    -13.694091    5.204841    7.341804    26.176100    -16.484423    55.248222    -7.851567    -21.141245    14.943691    11.600547    -16.275595    38.857491    1.564545    -33.710636    -27.202599    -10.729183    21.857313    -19.881836    -9.748802    3.189219    30.029585    0.000000    0.000000    0.000000    1.484190    12.549047    -9.243238    3.588704    20.439005    -0.759200    -2.989440    -29.007147    -7.216347    0.000000    0.000000    0.000000    
-5.176355    152.728989    -13.282646    -0.369476    1.245366    19.200430    -0.161597    0.676768    12.153389    1.154694    0.685069    4.044107    -12.229712    2.928694    -16.919161    20.186232    0.332547    -13.352463    6.289232    -2.878095    -1.993217    -31.049198    21.406782    10.992683    -15.579152    5.981140    -141.430481    3.247439    -38.362061    -9.542927    -13.667352    5.176202    7.352823    26.069479    -16.509399    55.130283    -7.862502    -21.113708    14.844266    11.621195    -16.246206    38.850643    1.540439    -33.730785    -27.231888    -10.730867    21.899477    -19.912556    -9.748038    3.171348    30.006813    0.000000    0.000000    0.000000    1.520454    12.547418    -9.306092    3.584300    20.483335    -0.785190    -2.970408    -29.036907    -7.204230    0.000000    0.000000    0.000000    
-5.203975    152.707596    -13.268219    -0.378791    1.237947    19.269613    -0.138790    0.696039    12.161160    1.093589    0.666162    4.047278    -12.226271    2.944805    -16.974014    20.218374    0.353364    -13.411656    6.327144    -2.903704    -2.007706    -31.125826    21.398905    11.108462    -15.541154    5.816521    -141.462326    3.302831    -38.428246    -9.443755    -13.650295    5.154753    7.371455    25.975853    -16.556595    55.007740    -7.847416    -21.105154    14.751093    11.612553    -16.242193    38.907722    1.523576    -33.757492    -27.260498    -10.743913    21.941036    -19.941807    -9.737185    3.162324    30.001165    0.000000    0.000000    0.000000    1.553654    12.531178    -9.360197    3.596417    20.550034    -0.809197    -3.005280    -29.068888    -7.210497    0.000000    0.000000    0.000000    
-5.233083    152.687424    -13.257584    -0.379949    1.228848    19.333965    -0.133220    0.724302    12.169449    1.044752    0.646812    4.050512    -12.225872    2.966804    -17.028282    20.266144    0.347599    -13.463705    6.362205    -2.902320    -1.997545    -31.145132    21.336739    11.167267    -15.546387    5.785790    -141.446915    3.329245    -38.449387    -9.413383    -13.641932    5.138693    7.367791    25.886515    -16.603464    54.925648    -7.839851    -21.113136    14.626522    11.595366    -16.261597    38.943996    1.502167    -33.775566    -27.273039    -10.743937    21.973972    -19.986359    -9.743482    3.152072    29.999193    0.000000    0.000000    0.000000    1.580857    12.515642    -9.392741    3.608672    20.617022    -0.840635    -2.984739    -29.103607    -7.209556    0.000000    0.000000    0.000000    
-5.261034    152.668045    -13.251868    -0.386242    1.218579    19.402239    -0.107983    0.753522    12.168362    0.970608    0.636063    4.050717    -12.218656    2.980335    -17.080526    20.315613    0.344464    -13.513741    6.403161    -2.906469    -1.985528    -31.152042    21.305727    11.224504    -15.562862    5.783651    -141.419769    3.336006    -38.464272    -9.412672    -13.620287    5.121335    7.364198    25.756346    -16.588758    54.829731    -7.902044    -21.164557    14.509557    11.609888    -16.310019    38.941242    1.479680    -33.796234    -27.306639    -10.747124    22.008213    -20.023697    -9.739464    3.143291    29.994164    0.000000    0.000000    0.000000    1.612925    12.495638    -9.460540    3.612926    20.690319    -0.859263    -3.009655    -29.137665    -7.221889    0.000000    0.000000    0.000000    
-5.296382    152.647583    -13.244249    -0.391280    1.209815    19.460793    -0.111270    0.774561    12.175364    0.944486    0.629420    4.053245    -12.236469    2.976989    -17.131577    20.365324    0.354257    -13.559791    6.420218    -2.914708    -1.994692    -31.164892    21.276363    11.324272    -15.598077    5.831148    -141.365112    3.255478    -38.456070    -9.533303    -13.635836    5.097640    7.356159    25.663090    -16.588923    54.755634    -7.948226    -21.180197    14.378205    11.602641    -16.337143    38.892872    1.465362    -33.817825    -27.303814    -10.742340    22.046389    -20.074335    -9.730875    3.140418    29.979874    0.000000    0.000000    0.000000    1.645757    12.477502    -9.518390    3.614223    20.757366    -0.861562    -3.023505    -29.170446    -7.238356    0.000000    0.000000    0.000000    
-5.330368    152.628723    -13.239566    -0.398954    1.201474    19.517509    -0.110390    0.801309    12.183211    0.910757    0.610485    4.056208    -12.239460    2.985189    -17.175493    20.409843    0.350965    -13.599855    6.442208    -2.910126    -1.999367    -31.166471    21.271105    11.408426    -15.617261    5.858409    -141.297577    3.108186    -38.401306    -9.659253    -13.643101    5.095373    7.337966    25.584694    -16.621679    54.713524    -7.984787    -21.189074    14.228160    11.586302    -16.361111    38.861393    1.456778    -33.840729    -27.324902    -10.755180    22.080799    -20.089243    -9.733391    3.130047    29.967621    0.000000    0.000000    0.000000    1.677169    12.460398    -9.580764    3.620696    20.817486    -0.869537    -3.026204    -29.200834    -7.244027    0.000000    0.000000    0.000000    
-5.366701    152.611832    -13.234676    -0.400984    1.192950    19.576492    -0.116039    0.829536    12.180118    0.881098    0.594196    4.055478    -12.266910    2.931581    -17.297960    20.459143    0.465015    -13.732964    6.458344    -2.906868    -1.998855    -31.156601    21.278963    11.498312    -15.635632    5.908456    -141.237259    3.057999    -38.337975    -9.659702    -13.659451    5.062378    7.338174    25.542915    -16.685537    54.672184    -7.974964    -21.177210    14.073265    11.577750    -16.363098    38.865284    1.436429    -33.860676    -27.338522    -10.749157    22.115934    -20.108267    -9.722768    3.139159    29.930014    0.000000    0.000000    0.000000    1.707497    12.444881    -9.657723    3.610190    20.878241    -0.875668    -3.032352    -29.233891    -7.229817    0.000000    0.000000    0.000000    
-5.407307    152.593307    -13.230473    -0.407729    1.186810    19.635679    -0.139038    0.861833    12.179692    0.907837    0.520326    4.055715    -12.328668    3.040408    -17.327135    20.525974    0.418141    -13.750631    6.422635    -2.845986    -2.047179    -31.139660    21.288498    11.614167    -15.660793    5.936506    -141.178131    3.130819    -38.318542    -9.584701    -13.739906    5.093656    7.380828    25.499229    -16.766821    54.611954    -7.974043    -21.165894    13.899999    11.580636    -16.362480    38.864113    1.426154    -33.885265    -27.365347    -10.760877    22.144346    -20.100918    -9.710739    3.144195    29.901932    0.000000    0.000000    0.000000    1.742044    12.429791    -9.732531    3.609869    20.926659    -0.904734    -3.017707    -29.258591    -7.200142    0.000000    0.000000    0.000000    
-5.449542    152.574066    -13.227236    -0.417680    1.176717    19.696476    -0.148778    0.891617    12.169726    0.894943    0.499004    4.052598    -12.333437    3.015466    -17.366518    20.540659    0.451173    -13.792620    6.433356    -2.846870    -2.050350    -31.127298    21.303333    11.744113    -15.699876    6.043464    -141.090744    3.066270    -38.235783    -9.683880    -13.772766    5.066520    7.370542    25.441158    -16.781601    54.583500    -8.004430    -21.176519    13.737988    11.554416    -16.391747    38.846714    1.419881    -33.911312    -27.393774    -10.777890    22.175463    -20.102156    -9.699488    3.148912    29.875832    0.000000    0.000000    0.000000    1.788745    12.468822    -9.821304    3.582153    20.974503    -0.936966    -2.981606    -29.363569    -7.124129    0.000000    0.000000    0.000000    
-5.487720    152.554382    -13.223129    -0.424248    1.166717    19.749058    -0.155772    0.916551    12.163819    0.870571    0.479837    4.050871    -12.331940    2.996937    -17.387560    20.560602    0.475908    -13.814574    6.450890    -2.842546    -2.057564    -31.117435    21.324677    11.883824    -15.721194    6.101798    -141.005753    2.898953    -38.139336    -9.785633    -13.781225    5.037255    7.375504    25.376068    -16.828959    54.547928    -8.001898    -21.187033    13.570690    11.536674    -16.416229    38.884312    1.408311    -33.934406    -27.407946    -10.785442    22.215612    -20.103374    -9.700171    3.143230    29.851017    0.000000    0.000000    0.000000    1.824364    12.452431    -9.888751    3.570652    21.030558    -0.946715    -2.973417    -29.395102    -7.118950    0.000000    0.000000    0.000000    
